<?xml version="1.0" standalone="no"?>
<!DOCTYPE svg PUBLIC "-//W3C//DTD SVG 20010904//EN"
 "http://www.w3.org/TR/2001/REC-SVG-20010904/DTD/svg10.dtd">
<svg version="1.0" xmlns="http://www.w3.org/2000/svg"
 width="1080.000000pt" height="1080.000000pt" viewBox="0 0 1080.000000 1080.000000"
 preserveAspectRatio="xMidYMid meet">

<g transform="translate(0.000000,1080.000000) scale(0.100000,-0.100000)"
fill="#000000" stroke="none">
<path d="M0 10380 l0 -419 71 -72 70 -73 140 140 139 139 140 -140 139 -139
101 99 c55 55 104 101 109 103 5 2 54 -43 109 -100 l101 -103 138 138 c76 75
142 137 147 137 4 0 68 -60 142 -132 74 -73 137 -132 142 -130 4 2 50 46 103
98 53 51 101 94 106 94 5 0 55 -46 111 -102 l100 -102 133 133 c73 73 137 133
141 134 4 1 69 -59 143 -133 l136 -134 102 102 c56 56 107 102 112 102 5 0 55
-45 111 -101 l102 -101 134 136 c74 75 138 136 144 136 5 0 71 -62 146 -137
l138 -138 101 103 c56 56 105 102 109 102 5 0 54 -46 109 -102 l101 -103 140
140 139 139 140 -138 140 -139 101 102 c55 55 104 101 108 101 5 0 54 -46 110
-102 l102 -102 135 135 c74 73 139 135 144 137 5 2 70 -59 146 -134 l136 -137
102 101 c56 56 107 102 113 102 6 0 50 -40 98 -89 47 -49 93 -94 100 -100 10
-9 42 17 143 118 71 71 134 131 141 133 7 2 73 -58 147 -132 l135 -134 103
102 c56 56 106 102 111 102 5 0 54 -45 109 -101 l100 -101 136 136 c75 75 141
136 147 136 5 0 60 -51 121 -112 61 -62 122 -123 135 -136 l25 -22 104 100
c57 54 107 99 110 100 3 0 52 -46 107 -102 l101 -103 140 139 140 140 133
-133 c73 -73 136 -133 140 -134 4 -1 52 42 106 96 55 53 104 97 108 97 5 0 55
-46 112 -102 l103 -103 103 105 c57 58 120 121 140 139 l36 35 140 -139 141
-139 102 102 c56 56 107 102 112 102 6 0 55 -45 109 -100 54 -55 100 -99 102
-98 2 2 64 64 139 138 l135 134 140 -139 140 -140 103 103 c56 56 107 102 112
102 6 0 22 -14 37 -32 l27 -33 1 423 0 422 -5400 0 -5400 0 0 -420z m728 -170
c50 -50 92 -93 92 -95 0 -3 -86 -5 -192 -5 l-192 0 95 95 c51 52 96 95 99 95
3 0 47 -41 98 -90z m992 -5 l95 -95 -200 0 -200 0 95 95 c52 52 99 95 105 95
6 0 53 -43 105 -95z m972 8 c49 -48 88 -91 88 -95 0 -5 -83 -8 -185 -8 -102 0
-185 2 -185 5 0 9 175 183 185 184 5 1 49 -38 97 -86z m989 -5 l92 -93 -188
-3 c-103 -1 -190 0 -192 2 -8 7 169 186 184 186 7 0 53 -42 104 -92z m979 -3
l95 -95 -195 0 -195 0 95 95 c52 52 97 95 100 95 3 0 48 -43 100 -95z m989 0
l94 -95 -199 0 -199 0 95 95 c52 52 99 95 105 95 6 0 53 -43 104 -95z m971 6
c49 -50 90 -92 90 -95 0 -3 -83 -6 -185 -6 -102 0 -185 3 -185 6 0 9 173 184
182 184 4 0 48 -40 98 -89z m989 -5 c50 -49 91 -90 91 -92 0 -2 -85 -4 -190
-4 -104 0 -190 3 -190 7 0 14 175 183 187 181 7 -2 53 -43 102 -92z m974 6
c48 -48 87 -91 87 -95 0 -4 -84 -7 -187 -7 l-188 0 95 95 c52 52 97 95 100 95
3 0 45 -39 93 -88z m988 1 c49 -48 89 -91 89 -95 0 -5 -85 -8 -190 -8 -104 0
-190 2 -190 4 0 8 184 186 192 186 5 0 50 -39 99 -87z m978 -4 c50 -51 91 -93
91 -95 0 -2 -87 -4 -192 -4 l-193 0 95 95 c52 52 97 95 101 95 4 0 48 -41 98
-91z"/>
<path d="M5476 8456 c-42 -74 -76 -138 -76 -142 0 -4 -6 -15 -14 -23 -7 -9
-40 -61 -71 -116 -85 -147 -231 -399 -330 -570 -48 -82 -99 -170 -113 -195
-14 -25 -59 -103 -101 -175 -81 -140 -142 -246 -193 -338 -18 -31 -63 -108
-99 -170 -96 -164 -298 -515 -327 -567 -14 -25 -28 -49 -32 -55 -4 -5 -19 -30
-32 -55 -24 -42 -94 -164 -280 -485 -41 -71 -122 -211 -178 -310 -57 -99 -114
-197 -126 -217 -13 -20 -43 -72 -67 -115 -24 -43 -79 -139 -122 -213 -174
-300 -235 -408 -235 -415 0 -3 1116 -5 2480 -5 1364 0 2480 2 2480 5 0 5 -44
86 -74 135 -27 45 -49 84 -81 140 -14 25 -30 52 -35 60 -27 42 -90 151 -90
155 0 3 -11 22 -23 43 -13 20 -35 57 -49 82 -30 53 -214 371 -318 550 -40 69
-86 150 -102 180 -17 30 -39 67 -49 82 -11 14 -19 29 -19 32 0 4 -20 39 -44
79 -24 39 -104 178 -178 307 -237 413 -330 573 -374 647 -24 40 -44 75 -44 78
0 3 -11 22 -24 43 -13 20 -85 145 -161 277 -76 132 -146 254 -156 270 -10 17
-22 37 -26 45 -4 8 -31 55 -60 103 -29 48 -53 90 -53 93 0 3 -31 58 -69 122
-70 117 -328 564 -405 699 -22 40 -44 73 -47 73 -4 0 -41 -60 -83 -134z m158
-89 c38 -67 85 -147 103 -177 18 -31 33 -61 33 -67 0 -10 -89 -143 -220 -327
-25 -35 -96 -137 -159 -227 -63 -90 -127 -182 -143 -204 -28 -41 -50 -72 -260
-372 -64 -93 -148 -213 -187 -268 -39 -55 -92 -131 -117 -170 -26 -38 -50 -72
-54 -75 -3 -3 -72 -99 -151 -215 -122 -176 -352 -506 -405 -580 -81 -115 -268
-382 -334 -479 -104 -152 -315 -447 -326 -457 -26 -21 -16 8 26 77 22 36 40
68 40 70 0 2 29 53 64 112 83 140 295 507 377 650 35 62 71 125 80 140 9 15
74 128 146 252 71 124 183 317 248 430 65 113 127 221 138 240 64 114 113 198
127 220 9 14 31 50 47 80 25 46 88 154 237 411 91 157 234 404 246 427 8 15
27 47 41 72 15 25 36 61 47 80 52 93 124 218 137 240 8 14 43 73 77 133 34 59
65 107 68 107 3 0 36 -55 74 -123z m156 -377 c0 -5 29 -68 64 -142 35 -73 66
-142 70 -154 7 -22 4 -26 -142 -200 -46 -54 -91 -108 -101 -119 -126 -152
-197 -236 -252 -301 -24 -28 -62 -72 -84 -99 -22 -27 -90 -108 -150 -179 -61
-72 -139 -167 -175 -211 -36 -44 -68 -82 -71 -85 -5 -5 -472 -560 -554 -659
-11 -13 -39 -47 -63 -75 -24 -28 -52 -61 -62 -74 -52 -62 -175 -208 -185 -218
-5 -6 -80 -95 -165 -198 -95 -115 -161 -186 -172 -186 -18 0 -26 25 -10 32 5
2 26 30 48 63 22 33 112 161 199 285 87 124 197 281 245 350 47 69 151 217
230 330 79 113 162 232 184 265 22 33 42 62 46 65 3 3 44 59 89 125 115 168
161 234 251 360 42 61 108 155 145 210 38 55 71 102 75 105 3 3 71 99 151 214
79 115 169 245 201 290 31 45 80 116 109 158 41 58 57 74 66 66 7 -6 13 -14
13 -18z m131 -118 c14 -26 63 -112 110 -192 47 -80 99 -170 116 -200 16 -30
77 -136 135 -235 94 -161 192 -331 299 -517 37 -65 300 -522 419 -728 36 -63
78 -134 93 -157 15 -24 27 -45 27 -48 0 -3 20 -38 44 -78 24 -39 90 -153 146
-252 56 -99 107 -186 114 -194 6 -8 16 -24 21 -36 9 -18 195 -345 228 -400 26
-42 55 -92 79 -135 14 -25 61 -108 106 -185 44 -77 84 -148 87 -158 7 -16 -7
-17 -193 -17 -148 0 -202 3 -209 13 -6 6 -34 64 -63 127 -29 63 -72 156 -95
205 -24 50 -54 115 -68 145 -23 52 -73 159 -139 299 -54 115 -119 255 -145
311 -31 67 -75 161 -140 300 -49 104 -80 170 -127 273 -13 28 -45 97 -71 152
-26 55 -60 127 -75 160 -72 155 -133 287 -210 450 -29 61 -75 160 -102 220
-28 61 -75 162 -105 225 -30 63 -74 158 -98 210 -24 52 -69 149 -100 215 -69
144 -125 266 -125 271 0 17 19 -4 41 -44z m73 -318 c3 -11 33 -78 66 -149 34
-70 85 -180 114 -244 72 -156 128 -275 187 -399 27 -56 49 -104 49 -106 0 -2
26 -59 59 -127 32 -68 70 -149 84 -179 14 -30 44 -95 67 -145 23 -49 134 -288
247 -530 113 -242 220 -471 238 -510 42 -89 102 -218 149 -320 21 -44 76 -162
123 -263 47 -100 84 -185 81 -188 -8 -7 -360 24 -369 33 -8 8 -89 222 -89 236
0 5 -11 36 -24 70 -33 85 -59 156 -186 507 -138 380 -139 382 -188 510 -23 58
-65 175 -96 260 -30 85 -84 236 -121 335 -74 199 -125 341 -155 425 -10 30
-82 228 -159 439 -111 303 -138 388 -129 399 10 11 15 10 29 -10 10 -13 20
-32 23 -44z m-39 -175 l58 -161 -259 -261 c-142 -144 -559 -561 -926 -926
l-666 -664 -34 9 c-18 5 -33 14 -33 20 0 6 17 30 37 55 100 119 319 379 425
504 32 39 128 153 213 255 85 102 167 199 181 215 15 17 54 64 88 105 35 41
71 85 81 96 10 12 60 73 112 135 51 63 98 119 104 125 9 11 46 54 138 163 43
51 67 80 111 132 17 19 44 52 60 73 17 21 35 44 40 50 19 20 130 151 164 194
18 23 37 42 41 42 4 0 33 -72 65 -161z m92 -256 c8 -21 35 -92 58 -158 24 -66
85 -232 135 -370 50 -137 118 -326 152 -420 33 -93 66 -183 73 -200 7 -16 20
-50 28 -75 8 -25 41 -115 72 -200 32 -85 75 -202 95 -260 21 -58 54 -148 73
-200 19 -52 71 -196 117 -320 45 -124 92 -252 105 -285 13 -33 27 -73 31 -89
l7 -28 -44 7 c-24 3 -75 13 -114 20 -38 8 -94 17 -122 21 -29 3 -57 12 -62 18
-5 6 -26 74 -46 151 -83 316 -106 403 -120 460 -9 33 -24 87 -34 120 -11 33
-36 125 -56 205 -21 80 -52 199 -70 265 -18 66 -49 183 -70 260 -20 77 -52
194 -70 260 -19 66 -59 215 -89 330 -31 116 -71 268 -90 339 l-34 130 21 27
c12 15 26 28 30 28 4 1 15 -16 24 -36z m-89 -168 c12 -44 28 -107 37 -139 l17
-60 -39 -36 c-35 -33 -138 -120 -663 -559 -102 -86 -244 -205 -316 -266 -72
-60 -167 -139 -210 -175 -43 -35 -81 -67 -84 -70 -3 -3 -24 -22 -48 -42 l-43
-36 -60 20 c-33 11 -59 24 -57 29 2 5 325 331 718 724 453 454 717 710 721
702 4 -6 16 -48 27 -92z m80 -297 c6 -18 27 -98 47 -178 20 -80 43 -165 50
-190 7 -25 34 -124 60 -220 47 -178 101 -378 136 -505 45 -162 219 -821 219
-828 0 -5 -8 -6 -17 -4 -73 19 -197 52 -240 64 -60 16 -50 -13 -104 303 -17
102 -47 271 -66 375 -19 105 -38 215 -43 245 -5 30 -21 120 -35 200 -14 80
-41 236 -60 347 -19 111 -42 232 -50 270 l-15 68 48 42 c26 24 50 43 54 43 3
0 11 -15 16 -32z m-158 -101 c0 -1 9 -49 20 -107 32 -166 37 -153 -91 -240
-61 -41 -116 -79 -122 -85 -17 -14 -59 -43 -173 -121 -54 -37 -110 -76 -124
-87 -58 -44 -296 -210 -307 -214 -14 -5 -153 56 -153 67 0 4 19 23 43 43 23
19 53 45 67 57 47 42 115 99 250 210 74 62 162 135 194 163 33 29 74 63 91 77
18 14 90 73 160 133 109 91 145 117 145 104z m60 -333 c0 -3 25 -146 55 -317
93 -521 156 -889 153 -892 -2 -1 -60 19 -130 43 -123 44 -128 47 -132 76 -3
17 -16 186 -31 376 -14 190 -30 392 -36 449 -12 135 -12 201 1 201 6 0 32 16
58 35 45 33 62 41 62 29z m-176 -226 c4 -57 11 -143 16 -193 17 -174 33 -435
27 -441 -3 -3 -52 16 -109 43 -57 27 -205 96 -330 153 -125 58 -227 108 -228
112 0 7 148 115 260 190 30 20 118 81 195 136 77 56 145 101 151 101 8 1 14
-35 18 -101z m-822 -296 c58 -27 95 -44 298 -139 41 -20 156 -73 255 -118 290
-134 312 -144 322 -157 11 -13 23 -158 13 -158 -5 0 -429 152 -490 175 -19 8
-78 29 -130 48 -52 19 -171 63 -265 97 -93 34 -191 69 -216 78 -26 10 -48 21
-49 26 -3 9 178 175 192 176 3 0 35 -13 70 -28z m-232 -221 c135 -49 371 -135
525 -192 154 -56 348 -126 430 -156 265 -97 369 -134 427 -155 31 -10 61 -25
66 -31 12 -14 27 -117 17 -117 -3 0 -72 18 -153 39 -81 21 -163 42 -182 45
-19 4 -44 11 -55 16 -11 5 -108 32 -215 61 -107 28 -274 73 -370 100 -96 26
-245 66 -330 88 -85 22 -202 53 -260 70 -58 16 -163 44 -233 62 -71 19 -134
37 -140 41 -15 9 190 218 213 218 9 0 126 -40 260 -89z m-569 -160 c35 -10
111 -31 169 -46 58 -15 159 -42 225 -61 66 -18 190 -51 275 -73 85 -22 281
-74 435 -116 154 -41 363 -97 465 -125 102 -27 217 -58 255 -68 39 -10 167
-45 285 -76 345 -93 315 -82 328 -119 17 -47 16 -49 -20 -42 -18 3 -238 41
-488 86 -744 131 -849 149 -992 174 -136 24 -466 82 -628 111 -47 9 -146 26
-220 39 -326 57 -386 68 -394 76 -7 6 54 90 94 129 3 3 29 33 59 68 29 34 61
62 71 62 10 0 46 -8 81 -19z m-296 -300 c102 -19 425 -75 695 -122 108 -19
510 -90 700 -124 47 -9 227 -40 400 -71 173 -30 351 -61 395 -69 44 -9 195
-35 335 -60 140 -24 269 -47 285 -50 357 -64 391 -72 372 -91 -4 -4 -66 -1
-139 5 -73 7 -236 21 -363 31 -126 11 -302 26 -390 35 -88 8 -214 19 -280 25
-66 5 -300 25 -520 45 -220 19 -456 39 -525 45 -69 5 -147 12 -174 15 -26 3
-102 10 -167 15 -66 5 -217 19 -337 29 -119 11 -307 27 -417 36 -110 9 -208
20 -218 23 -15 6 -8 21 52 107 38 55 73 105 78 110 4 6 16 22 25 36 26 42 49
60 67 55 9 -2 66 -14 126 -25z m-250 -346 c88 -8 219 -19 290 -25 72 -5 175
-14 230 -20 107 -10 336 -30 635 -55 102 -9 358 -31 570 -50 212 -19 541 -49
733 -65 191 -17 503 -44 695 -61 191 -17 393 -34 449 -38 57 -4 106 -10 109
-14 4 -4 -925 -7 -2064 -7 -1140 0 -2072 3 -2072 7 0 4 43 82 96 175 l96 168
37 0 c20 0 108 -7 196 -15z"/>
<path d="M3415 3815 c-172 -38 -335 -168 -418 -331 -66 -131 -81 -327 -34
-464 38 -112 72 -167 158 -252 91 -90 202 -150 315 -168 119 -19 166 -37 208
-77 50 -48 69 -94 69 -163 0 -123 -98 -220 -223 -220 -82 0 -143 35 -192 110
-15 24 -17 24 -34 8 -16 -16 -16 -20 -4 -44 63 -116 233 -165 356 -102 57 30
109 83 132 137 25 57 22 186 -5 238 -51 95 -115 136 -249 158 -137 24 -209 53
-292 121 -103 82 -166 181 -198 306 -22 84 -14 250 15 327 61 163 225 315 384
357 68 18 227 18 296 -1 139 -37 279 -146 351 -273 36 -64 49 -72 69 -48 15
18 -2 55 -70 146 -143 194 -396 288 -634 235z"/>
<path d="M5155 3823 c-247 -32 -455 -138 -631 -323 -187 -197 -278 -409 -290
-680 -15 -332 93 -603 333 -831 126 -120 286 -208 461 -254 82 -22 246 -36
325 -29 64 6 68 8 65 30 -3 24 -4 24 -148 28 -155 3 -234 18 -349 63 -282 113
-530 388 -601 668 -38 149 -46 267 -27 403 34 240 115 401 292 578 89 89 129
121 210 166 171 97 293 128 503 128 l123 0 -3 28 -3 27 -115 1 c-63 1 -128 0
-145 -3z"/>
<path d="M6455 3823 c-78 -9 -218 -50 -294 -84 -123 -57 -203 -113 -311 -219
-130 -127 -221 -280 -276 -465 -26 -84 -28 -103 -28 -280 0 -164 3 -202 21
-277 84 -333 355 -626 683 -740 117 -40 290 -62 408 -52 69 7 73 8 70 30 -3
23 -4 24 -158 28 -173 4 -271 26 -405 91 -240 116 -444 346 -525 594 -100 307
-49 647 136 898 142 193 324 324 541 389 75 23 113 27 251 32 160 4 162 5 162
27 0 15 -8 25 -22 29 -24 6 -201 6 -253 -1z"/>
<path d="M7760 3823 c-79 -9 -211 -47 -296 -88 -420 -197 -662 -620 -614
-1078 26 -259 123 -461 307 -644 87 -86 212 -176 304 -217 143 -65 386 -107
514 -89 51 7 60 11 61 29 1 21 -4 22 -145 27 -198 6 -319 36 -461 114 -201
110 -383 311 -463 513 -53 134 -61 183 -61 370 -1 153 2 186 23 265 24 94 78
212 139 305 54 83 198 221 295 285 167 108 292 146 516 154 137 5 154 8 157
24 1 9 -6 22 -16 27 -18 9 -184 11 -260 3z"/>
<path d="M3426 3719 c-68 -16 -163 -68 -220 -119 -221 -203 -233 -543 -26
-757 92 -96 172 -135 310 -154 138 -19 236 -83 287 -187 24 -49 28 -69 28
-142 0 -73 -4 -92 -28 -137 -105 -201 -371 -243 -512 -81 -17 18 -37 44 -45
56 -14 21 -17 22 -35 8 -20 -14 -20 -15 -1 -50 52 -97 153 -157 278 -164 125
-7 212 24 292 104 148 150 149 380 4 525 -65 65 -128 96 -235 113 -157 26
-248 73 -336 177 -92 106 -129 270 -93 406 22 83 57 143 125 215 69 74 141
115 240 138 67 16 190 8 251 -16 113 -44 218 -138 267 -238 23 -47 29 -53 45
-45 10 5 18 16 18 25 0 34 -57 123 -119 184 -74 73 -139 112 -226 135 -64 16
-206 19 -269 4z"/>
<path d="M5090 3715 c-342 -71 -640 -348 -730 -677 -63 -232 -45 -470 51 -683
87 -194 290 -391 496 -481 120 -52 207 -68 368 -69 l140 0 3 25 3 25 -138 0
c-146 1 -221 15 -351 69 -145 59 -327 216 -416 359 -95 153 -136 301 -136 490
1 255 86 458 269 637 186 182 365 259 626 266 137 4 140 5 140 27 0 22 -2 22
-130 24 -77 1 -156 -4 -195 -12z"/>
<path d="M6445 3724 c-229 -47 -359 -112 -510 -255 -100 -95 -159 -174 -211
-284 -73 -154 -88 -224 -89 -415 0 -142 3 -177 23 -250 74 -272 270 -508 524
-630 123 -59 210 -80 364 -87 158 -7 184 -2 184 33 l0 25 -87 -7 c-252 -18
-497 78 -689 270 -168 169 -240 319 -264 550 -26 257 50 494 221 690 86 97
176 167 284 221 135 67 223 87 390 90 l140 3 3 26 3 26 -133 -1 c-73 -1 -142
-3 -153 -5z"/>
<path d="M7685 3710 c-363 -82 -661 -389 -729 -749 -20 -107 -20 -285 0 -392
46 -242 201 -469 421 -615 150 -101 285 -143 480 -151 156 -7 184 -2 179 30
-3 21 -7 22 -79 19 -215 -10 -429 54 -588 176 -179 136 -296 306 -350 507 -33
119 -33 335 0 460 25 96 97 245 152 316 197 249 459 376 757 368 80 -3 95 0
104 14 5 9 6 22 3 27 -11 17 -261 10 -350 -10z"/>
<path d="M3465 3630 c-107 -22 -208 -93 -270 -190 -49 -77 -66 -137 -66 -236
0 -125 30 -203 114 -292 82 -86 153 -119 297 -137 229 -29 406 -268 361 -486
-27 -129 -123 -253 -238 -307 -53 -25 -68 -27 -173 -27 -97 1 -123 4 -165 24
-66 30 -127 81 -161 136 -29 46 -49 53 -67 24 -8 -12 -3 -25 19 -55 50 -66 97
-104 170 -140 186 -91 389 -58 534 86 101 101 146 218 137 359 -14 246 -171
403 -440 441 -134 19 -245 98 -303 215 -26 54 -29 70 -29 160 0 89 3 106 28
156 36 74 117 155 186 188 49 23 69 26 161 26 99 0 109 -2 166 -32 68 -36 137
-106 172 -176 25 -50 33 -55 51 -33 18 21 -21 96 -85 166 -103 111 -253 160
-399 130z"/>
<path d="M5148 3629 c-321 -47 -614 -312 -704 -639 -22 -80 -30 -292 -14 -376
51 -271 213 -492 460 -626 130 -70 321 -109 465 -93 62 6 66 8 63 31 -3 24 -4
24 -148 28 -115 3 -160 8 -215 26 -301 95 -526 355 -572 660 -31 204 12 405
123 570 162 243 407 373 694 369 l115 -2 3 25 c3 21 -2 26 -29 32 -42 8 -170
6 -241 -5z"/>
<path d="M6475 3630 c-160 -24 -294 -82 -416 -179 -172 -137 -282 -317 -319
-523 -29 -158 -4 -382 58 -518 100 -220 311 -410 535 -479 93 -28 236 -44 325
-36 71 7 73 7 70 33 l-3 26 -110 -3 c-265 -6 -488 99 -655 306 -111 138 -165
279 -176 458 -15 243 66 456 238 626 97 97 196 159 318 200 86 29 109 33 243
37 144 4 147 5 147 27 0 18 -7 24 -37 29 -48 7 -153 6 -218 -4z"/>
<path d="M7795 3633 c-188 -24 -346 -99 -489 -234 -152 -142 -244 -323 -267
-526 -20 -176 4 -328 76 -478 117 -245 332 -421 586 -479 84 -20 233 -29 289
-19 37 7 45 12 45 31 0 23 -2 23 -140 26 -158 2 -228 17 -342 72 -172 84 -317
233 -397 408 -51 111 -61 168 -61 336 1 140 3 163 27 240 86 271 333 498 606
555 37 8 122 15 188 15 l121 0 -4 24 c-3 14 -14 27 -26 30 -23 6 -162 6 -212
-1z"/>
<path d="M3460 3531 c-92 -28 -186 -117 -220 -207 -59 -157 21 -350 173 -420
29 -12 85 -28 126 -35 202 -31 341 -129 419 -298 30 -65 35 -88 40 -176 8
-161 -37 -281 -149 -394 -217 -219 -580 -191 -763 58 -32 44 -40 49 -57 41
-27 -15 -24 -24 27 -91 107 -139 255 -209 444 -209 160 0 265 45 386 165 120
119 166 226 168 390 1 149 -38 259 -132 372 -90 107 -211 171 -373 198 -102
16 -158 43 -208 100 -47 54 -64 101 -64 180 0 114 55 201 163 256 60 31 166
32 230 3 58 -27 125 -96 146 -151 18 -47 22 -49 49 -29 18 13 18 15 -9 69 -34
70 -110 139 -182 166 -56 22 -163 27 -214 12z"/>
<path d="M5120 3525 c-189 -38 -372 -168 -488 -348 -152 -233 -157 -555 -13
-802 80 -138 232 -272 379 -334 97 -41 297 -64 391 -45 23 5 31 12 31 28 0 20
-5 21 -122 22 -141 1 -216 17 -323 70 -252 126 -405 371 -405 647 0 126 23
221 82 336 71 141 231 287 373 340 98 37 211 54 308 47 l88 -6 -3 28 -3 27
-115 2 c-64 1 -144 -5 -180 -12z"/>
<path d="M6425 3525 c-222 -49 -421 -207 -529 -423 -112 -222 -94 -545 41
-750 151 -227 393 -362 651 -362 115 0 142 7 142 37 0 24 0 24 -78 18 -135
-12 -294 24 -412 92 -88 52 -227 191 -272 273 -98 180 -118 378 -58 580 17 58
85 185 114 216 6 6 25 26 42 45 86 94 197 166 319 206 69 22 98 26 212 27 129
1 133 2 133 22 0 12 -7 25 -16 28 -28 11 -227 4 -289 -9z"/>
<path d="M7725 3524 c-77 -16 -230 -87 -285 -131 -148 -120 -249 -272 -291
-443 -18 -72 -21 -103 -16 -215 6 -140 23 -212 76 -320 37 -75 65 -114 144
-193 160 -163 349 -239 574 -230 70 2 96 7 103 18 5 8 8 19 7 25 -2 5 -57 10
-128 11 -141 1 -192 12 -304 64 -142 66 -271 188 -343 328 -60 115 -76 185
-75 327 1 140 16 213 69 317 134 266 409 426 696 405 81 -7 96 -1 79 32 -9 17
-23 19 -123 19 -65 1 -143 -6 -183 -14z"/>
<path d="M3492 3440 c-173 -41 -238 -277 -111 -401 45 -44 83 -60 182 -76 247
-39 434 -193 508 -418 33 -98 33 -270 0 -365 -55 -159 -169 -290 -313 -359
-106 -51 -183 -65 -306 -58 -186 10 -342 93 -438 233 -21 30 -40 54 -44 54 -3
0 -14 -6 -25 -13 -17 -13 -17 -16 13 -59 87 -127 264 -236 426 -264 285 -49
565 92 697 351 49 97 68 181 68 295 1 198 -67 353 -214 487 -103 95 -226 151
-365 168 -82 10 -134 37 -165 84 -107 160 60 353 232 270 48 -23 80 -62 94
-114 11 -39 16 -41 44 -21 48 35 -46 167 -142 200 -50 17 -88 19 -141 6z"/>
<path d="M5185 3440 c-198 -30 -365 -142 -482 -326 -53 -82 -85 -194 -90 -314
-10 -209 50 -365 196 -511 97 -96 183 -150 288 -178 85 -23 202 -34 268 -24
43 7 50 11 53 33 l3 25 -128 0 c-151 0 -211 15 -313 78 -106 65 -186 147 -242
247 -81 143 -96 338 -37 507 56 165 232 335 401 389 35 11 98 18 183 20 128 4
130 4 133 28 3 21 -2 24 -44 30 -56 7 -122 6 -189 -4z"/>
<path d="M6462 3435 c-44 -8 -109 -31 -167 -59 -78 -38 -108 -60 -177 -129
-140 -141 -198 -283 -198 -482 0 -175 45 -303 151 -433 144 -175 386 -274 599
-245 50 7 55 10 58 35 l3 28 -88 -6 c-122 -9 -213 8 -321 61 -147 71 -265 205
-317 359 -76 228 -19 471 151 640 136 136 274 191 466 184 l108 -3 0 26 c0 24
-4 27 -52 33 -75 8 -132 6 -216 -9z"/>
<path d="M7790 3440 c-172 -27 -357 -148 -457 -298 -159 -240 -144 -575 36
-799 92 -114 226 -202 363 -239 58 -15 280 -26 292 -13 2 2 6 15 8 28 l3 24
-135 2 c-150 2 -193 13 -296 70 -130 73 -247 212 -296 353 -31 90 -33 296 -4
382 34 100 79 173 156 251 135 137 269 191 465 188 110 -2 110 -2 107 21 -1
13 -4 25 -6 27 -8 8 -188 11 -236 3z"/>
<path d="M533 1480 c-46 -28 -68 -66 -66 -116 3 -74 40 -121 108 -138 16 -4
36 -12 42 -18 39 -32 -15 -96 -58 -70 -17 11 -26 10 -52 -6 -46 -27 -41 -51
16 -81 45 -23 53 -24 94 -13 91 25 139 122 98 201 -19 37 -71 81 -96 81 -52 0
-80 48 -40 70 20 10 51 4 51 -10 0 -17 40 -5 46 12 3 10 10 15 16 12 6 -4 8 2
3 17 -7 23 -7 24 9 4 20 -25 21 -7 1 21 -18 27 -75 54 -112 54 -15 0 -42 -9
-60 -20z m-29 -55 c-9 -14 -18 -25 -21 -25 -5 0 5 18 20 38 17 22 18 13 1 -13z
m71 7 c-3 -3 -11 0 -18 7 -9 10 -8 11 6 5 10 -3 15 -9 12 -12z m-53 -21 c-9
-16 -18 -28 -21 -26 -4 5 27 55 34 55 2 0 -4 -13 -13 -29z m141 -4 c3 -8 -1
-14 -8 -14 -7 0 -11 6 -8 14 3 7 6 13 8 13 2 0 5 -6 8 -13z m-128 -18 c-6 -16
-4 -20 6 -13 11 6 12 5 3 -7 -6 -8 -14 -21 -17 -29 -3 -8 -4 1 -2 20 4 49 4
50 11 50 3 0 2 -10 -1 -21z m-31 -30 c-6 -11 15 -51 24 -45 4 2 16 -2 27 -10
10 -8 14 -14 9 -14 -6 0 -16 6 -23 13 -12 10 -13 8 -7 -8 10 -31 -31 24 -43
57 -8 22 -7 26 5 21 7 -3 11 -9 8 -14z m122 -66 c-5 -5 -76 24 -76 31 0 2 18
-3 40 -11 22 -9 38 -18 36 -20z m-122 1 c3 -8 2 -12 -4 -9 -6 3 -10 10 -10 16
0 14 7 11 14 -7z m206 -78 c0 -12 -5 -7 -19 24 -11 24 -11 24 3 6 9 -11 16
-24 16 -30z m-107 27 c-7 -2 -19 -2 -25 0 -7 3 -2 5 12 5 14 0 19 -2 13 -5z
m88 -90 c-12 -20 -14 -14 -5 12 4 9 9 14 11 11 3 -2 0 -13 -6 -23z m10 -30
c-12 -20 -14 -14 -5 12 4 9 9 14 11 11 3 -2 0 -13 -6 -23z m-86 -3 c-3 -5 -16
-10 -28 -9 -20 1 -20 2 3 9 14 4 26 8 28 9 2 1 0 -3 -3 -9z m65 4 c0 -8 -19
-13 -24 -6 -3 5 1 9 9 9 8 0 15 -2 15 -3z m-90 -64 c0 -5 -5 -10 -11 -10 -5 0
-7 5 -4 10 3 6 8 10 11 10 2 0 4 -4 4 -10z"/>
<path d="M899 1484 c-57 -17 -132 -94 -148 -150 -25 -91 -8 -156 63 -228 45
-46 60 -55 109 -66 110 -22 210 26 261 128 19 37 23 143 7 184 -20 53 -90 117
-144 133 -61 18 -88 18 -148 -1z m58 -10 c-3 -3 -12 -4 -19 -1 -8 3 -5 6 6 6
11 1 17 -2 13 -5z m-107 -39 c-7 -8 -17 -15 -23 -15 -6 0 -2 7 9 15 25 19 30
19 14 0z m80 -5 c-8 -5 -19 -10 -25 -10 -5 0 -3 5 5 10 8 5 20 10 25 10 6 0 3
-5 -5 -10z m171 -17 l24 -28 -30 25 c-16 14 -32 26 -34 28 -2 1 0 2 6 2 5 0
20 -12 34 -27z m35 -5 l29 -33 -32 29 c-31 28 -38 36 -30 36 2 0 16 -15 33
-32z m-319 -18 c1 -11 -2 -22 -6 -24 -6 -4 -7 26 -2 42 3 8 7 -1 8 -18z m277
-11 c-3 -5 -11 -9 -17 -8 -8 0 -8 2 1 6 10 4 10 8 0 21 -12 15 -11 16 4 3 10
-7 15 -17 12 -22z m-37 -11 c78 -73 65 -175 -29 -224 -39 -20 -69 -17 -122 11
-25 13 -46 22 -46 18 0 -3 -7 0 -15 7 -26 21 -17 -2 12 -33 23 -23 24 -27 8
-21 -18 7 -18 6 -6 -9 25 -31 5 -17 -30 20 -22 25 -24 29 -6 14 29 -26 37 -19
11 10 -21 23 -9 45 14 27 14 -11 15 -10 8 7 -31 80 -7 156 59 187 50 24 108
18 142 -14z m-207 8 c0 -2 -8 -10 -17 -17 -16 -13 -17 -12 -4 4 13 16 21 21
21 13z m-83 -78 c-3 -8 -6 -5 -6 6 -1 11 2 17 5 13 3 -3 4 -12 1 -19z m380
-50 c-2 -13 -4 -5 -4 17 -1 22 1 32 4 23 2 -10 2 -28 0 -40z m40 -10 c-3 -8
-6 -5 -6 6 -1 11 2 17 5 13 3 -3 4 -12 1 -19z m-360 -10 c-3 -8 -6 -5 -6 6 -1
11 2 17 5 13 3 -3 4 -12 1 -19z m316 -63 c-3 -9 -8 -14 -10 -11 -3 3 -2 9 2
15 9 16 15 13 8 -4z m-53 1 c0 -2 -8 -10 -17 -17 -16 -13 -17 -12 -4 4 13 16
21 21 21 13z m-265 -46 c16 -17 16 -20 3 -15 -9 4 -19 13 -22 21 -7 19 -2 18
19 -6z m246 0 c-13 -11 -28 -20 -35 -20 -6 0 3 9 19 19 39 25 46 25 16 1z
m-73 -7 c-10 -2 -28 -2 -40 0 -13 2 -5 4 17 4 22 1 32 -1 23 -4z m49 -38 c0
-8 -4 -12 -9 -9 -5 3 -6 10 -3 15 9 13 12 11 12 -6z"/>
<path d="M1393 1491 c-54 -14 -97 -45 -130 -94 -105 -155 3 -362 187 -361 67
1 122 20 100 35 -12 8 -10 9 6 4 28 -7 78 34 104 86 28 54 27 161 -1 209 -31
51 -59 80 -102 102 -44 22 -118 31 -164 19z m-30 -33 c-4 -7 -8 -17 -8 -23 0
-9 -6 -10 -37 -6 -7 0 1 10 17 20 37 24 38 24 28 9z m238 -60 c-11 -11 -13
-10 -7 0 4 7 2 21 -5 30 -12 15 -11 15 6 0 16 -15 17 -20 6 -30z m-72 -26 c14
-10 34 -39 45 -64 18 -44 18 -45 -2 -91 -34 -76 -106 -105 -177 -71 -97 46
-101 183 -7 234 44 24 103 21 141 -8z m-251 -33 c-6 -16 -12 -28 -14 -26 -5 5
13 57 20 57 3 0 0 -14 -6 -31z m-21 -86 c-3 -10 -5 -4 -5 12 0 17 2 24 5 18 2
-7 2 -21 0 -30z m410 15 c-3 -8 -6 -5 -6 6 -1 11 2 17 5 13 3 -3 4 -12 1 -19z
m-60 -20 c-3 -7 -5 -2 -5 12 0 14 2 19 5 13 2 -7 2 -19 0 -25z m-16 -51 c-10
-9 -11 -8 -5 6 3 10 9 15 12 12 3 -3 0 -11 -7 -18z m62 -12 c-3 -9 -8 -14 -10
-11 -3 3 -2 9 2 15 9 16 15 13 8 -4z m-365 -20 c-3 -3 -9 2 -12 12 -6 14 -5
15 5 6 7 -7 10 -15 7 -18z m43 -22 c13 -16 12 -17 -3 -4 -17 13 -22 21 -14 21
2 0 10 -8 17 -17z m279 3 c0 -2 -8 -10 -17 -17 -16 -13 -17 -12 -4 4 13 16 21
21 21 13z m-142 -33 c-10 -2 -26 -2 -35 0 -10 3 -2 5 17 5 19 0 27 -2 18 -5z
m-94 -32 c-2 -3 -12 3 -22 13 -16 17 -16 18 5 5 12 -7 20 -15 17 -18z m221 19
c-3 -5 -12 -10 -18 -10 -7 0 -6 4 3 10 19 12 23 12 15 0z m-122 -47 c-7 -2
-19 -2 -25 0 -7 3 -2 5 12 5 14 0 19 -2 13 -5z"/>
<path d="M2240 1479 c-54 -25 -75 -43 -106 -91 -45 -71 -44 -174 4 -247 16
-24 32 -39 40 -36 7 2 11 1 8 -4 -9 -14 30 -42 81 -57 33 -10 64 -13 98 -8 28
4 53 7 58 6 4 -1 7 47 7 106 l0 109 -27 -2 c-26 -1 -28 -4 -29 -46 -1 -24 -4
-52 -9 -61 -12 -30 -82 -19 -119 17 -21 22 -34 12 -15 -12 11 -14 8 -14 -10 2
-23 19 -24 19 -17 1 5 -16 4 -17 -9 -6 -15 13 -21 35 -7 26 4 -2 14 -1 21 3
10 7 10 13 2 29 -6 11 -11 38 -11 59 0 82 72 141 156 128 24 -3 44 -11 44 -18
0 -6 13 4 29 23 16 19 27 38 24 43 -2 4 2 7 9 7 7 1 -5 10 -26 22 -57 30 -140
33 -196 7z m83 -6 c-7 -2 -19 -2 -25 0 -7 3 -2 5 12 5 14 0 19 -2 13 -5z m-74
-37 c-2 -2 -15 -9 -29 -15 -24 -11 -24 -11 -6 3 16 13 49 24 35 12z m-67 -18
c-15 -15 -16 -32 -1 -22 8 5 8 1 0 -14 -6 -12 -17 -24 -24 -28 -9 -5 -9 -4 1
7 15 16 16 33 0 23 -7 -5 -8 -2 -3 7 13 23 27 39 33 39 3 0 1 -5 -6 -12z m42
-37 c3 -5 -2 -15 -12 -22 -15 -12 -16 -12 -5 2 7 9 10 19 6 22 -3 4 -4 7 0 7
3 0 8 -4 11 -9z m-57 -173 c-3 -8 -6 -5 -6 6 -1 11 2 17 5 13 3 -3 4 -12 1
-19z m-3 -34 c4 -10 2 -13 -6 -8 -8 5 -9 1 -4 -12 5 -14 4 -16 -4 -8 -6 6 -8
18 -4 27 8 21 10 21 18 1z m30 -42 c3 -5 -1 -9 -9 -9 -8 0 -12 4 -9 9 3 4 7 8
9 8 2 0 6 -4 9 -8z m61 -20 c-3 -3 -11 0 -18 7 -9 10 -8 11 6 5 10 -3 15 -9
12 -12z m83 1 c-10 -2 -26 -2 -35 0 -10 3 -2 5 17 5 19 0 27 -2 18 -5z m19
-59 c-3 -3 -12 -4 -19 -1 -8 3 -5 6 6 6 11 1 17 -2 13 -5z"/>
<path d="M2573 1484 c-44 -22 -73 -71 -73 -123 0 -46 16 -85 30 -76 6 3 7 0 4
-8 -3 -10 9 -22 39 -36 24 -11 48 -21 54 -21 5 0 18 -9 28 -20 17 -18 17 -21
1 -45 -18 -28 -33 -31 -70 -14 -20 10 -28 9 -41 -4 -9 -9 -24 -21 -33 -27 -15
-9 -13 -13 18 -39 39 -33 78 -44 118 -34 90 22 136 117 98 206 -15 38 -47 61
-103 76 -47 13 -61 36 -37 62 21 23 32 24 54 4 14 -13 22 -14 44 -4 14 7 26
16 26 20 0 4 7 9 16 11 24 5 -20 56 -62 74 -43 18 -71 17 -111 -2z m138 -61
c13 -16 12 -17 -3 -4 -17 13 -22 21 -14 21 2 0 10 -8 17 -17z m-161 -23 c-12
-22 -10 -55 4 -95 5 -13 2 -11 -8 5 -8 14 -15 35 -16 47 0 24 20 76 27 69 3
-2 -1 -14 -7 -26z m145 10 c10 -11 16 -20 13 -20 -3 0 -13 9 -23 20 -10 11
-16 20 -13 20 3 0 13 -9 23 -20z m-70 -100 c13 -6 15 -9 5 -9 -8 0 -22 4 -30
9 -18 12 -2 12 25 0z m80 -41 c19 -17 35 -36 35 -43 0 -6 -5 -3 -11 7 -6 9
-15 14 -21 11 -6 -4 -8 -3 -5 3 9 14 -19 37 -34 27 -7 -4 -9 -3 -5 4 3 5 0 13
-6 15 -10 4 -10 6 -1 6 7 1 28 -13 48 -30z m-40 -49 c10 -11 16 -20 13 -20 -3
0 -13 9 -23 20 -10 11 -16 20 -13 20 3 0 13 -9 23 -20z m82 -47 c-3 -10 -5 -4
-5 12 0 17 2 24 5 18 2 -7 2 -21 0 -30z m-81 -41 c-17 -16 -18 -16 -5 5 7 12
15 20 18 17 3 -2 -3 -12 -13 -22z m65 -15 c-10 -9 -11 -8 -5 6 3 10 9 15 12
12 3 -3 0 -11 -7 -18z m-56 -7 c-20 -22 -8 -28 14 -7 11 9 12 9 7 0 -4 -7 -16
-18 -28 -24 -15 -8 -19 -8 -14 0 4 6 0 11 -11 11 -13 0 -10 5 12 19 39 25 42
25 20 1z m-42 3 c-7 -2 -21 -2 -30 0 -10 3 -4 5 12 5 17 0 24 -2 18 -5z m87
-17 c0 -2 -8 -10 -17 -17 -16 -13 -17 -12 -4 4 13 16 21 21 21 13z"/>
<path d="M3477 1486 c-75 -20 -129 -75 -153 -155 -42 -141 47 -273 199 -296
l48 -7 -2 50 c-2 50 -3 50 -41 56 -88 14 -142 111 -104 186 8 18 13 37 9 43
-3 6 -1 7 5 3 6 -3 26 3 44 14 18 11 45 20 61 20 26 0 27 2 27 50 0 57 -6 59
-93 36z m-31 -41 c-1 -8 -5 -17 -8 -21 -5 -4 -4 16 1 34 3 9 9 -1 7 -13z m-36
-49 c0 -2 -8 -10 -17 -17 -16 -13 -17 -12 -4 4 13 16 21 21 21 13z m-37 -51
c-3 -9 -8 -14 -10 -11 -3 3 -2 9 2 15 9 16 15 13 8 -4z m8 -41 c-5 -16 -10
-21 -10 -12 -1 18 10 51 15 45 2 -1 -1 -16 -5 -33z m-4 -76 c-3 -7 -5 -2 -5
12 0 14 2 19 5 13 2 -7 2 -19 0 -25z m20 10 c-3 -8 -6 -5 -6 6 -1 11 2 17 5
13 3 -3 4 -12 1 -19z m-33 -34 c3 -8 2 -12 -4 -9 -6 3 -10 10 -10 16 0 14 7
11 14 -7z m26 -49 c14 -19 14 -19 -2 -6 -10 7 -18 18 -18 24 0 6 1 8 3 6 1 -2
9 -13 17 -24z m57 -20 c0 -8 -4 -12 -9 -9 -5 3 -6 10 -3 15 9 13 12 11 12 -6z
m-6 -32 c13 -16 12 -17 -3 -4 -10 7 -18 15 -18 17 0 8 8 3 21 -13z m102 10
c-7 -2 -21 -2 -30 0 -10 3 -4 5 12 5 17 0 24 -2 18 -5z m-38 -13 c13 -6 15 -9
5 -9 -8 0 -22 4 -30 9 -18 12 -2 12 25 0z"/>
<path d="M3749 1485 c-51 -16 -112 -75 -135 -131 -21 -50 -18 -140 7 -190 45
-93 154 -147 254 -125 60 14 129 57 121 76 -3 8 0 12 7 9 37 -14 70 139 47
212 -39 123 -174 190 -301 149z m124 -12 c-7 -2 -19 -2 -25 0 -7 3 -2 5 12 5
14 0 19 -2 13 -5z m-137 -47 c-2 -16 -56 -82 -56 -69 0 5 11 20 25 33 13 12
24 25 23 29 -1 11 2 21 6 21 2 0 3 -6 2 -14z m154 4 c18 -12 2 -12 -25 0 -13
6 -15 9 -5 9 8 0 22 -4 30 -9z m112 -34 c10 -18 9 -19 -4 -8 -9 7 -18 9 -20 3
-1 -5 -12 3 -22 17 l-20 27 22 -19 c23 -20 31 -10 10 14 -11 12 -10 12 5 0 10
-7 23 -23 29 -34z m-292 20 c0 -2 -8 -10 -17 -17 -16 -13 -17 -12 -4 4 13 16
21 21 21 13z m40 -20 c0 -2 -8 -10 -17 -17 -16 -13 -17 -12 -4 4 13 16 21 21
21 13z m135 -10 c67 -28 96 -123 58 -188 -26 -44 -86 -71 -138 -64 -121 19
-144 194 -34 249 42 20 70 21 114 3z m72 -16 c-2 -23 -10 -17 -12 10 -1 10 2
17 6 14 4 -2 7 -13 6 -24z m-320 -117 c-3 -10 -5 -4 -5 12 0 17 2 24 5 18 2
-7 2 -21 0 -30z m390 -5 c-3 -8 -6 -5 -6 6 -1 11 2 17 5 13 3 -3 4 -12 1 -19z
m-7 -36 c0 -5 -7 -17 -15 -28 -14 -18 -14 -17 -4 9 12 27 19 34 19 19z m-56
-27 c-9 -14 -18 -25 -21 -25 -5 0 5 18 20 38 17 22 18 13 1 -13z m57 -22 c-12
-20 -14 -14 -5 12 4 9 9 14 11 11 3 -2 0 -13 -6 -23z m-55 -11 c-17 -16 -18
-16 -5 5 7 12 15 20 18 17 3 -2 -3 -12 -13 -22z m-265 1 c13 -16 12 -17 -3 -4
-10 7 -18 15 -18 17 0 8 8 3 21 -13z m289 -7 c0 -2 -8 -10 -17 -17 -16 -13
-17 -12 -4 4 13 16 21 21 21 13z m-305 -36 c10 -11 16 -20 13 -20 -3 0 -13 9
-23 20 -10 11 -16 20 -13 20 3 0 13 -9 23 -20z m173 3 c-10 -2 -28 -2 -40 0
-13 2 -5 4 17 4 22 1 32 -1 23 -4z m-35 -20 c-7 -2 -19 -2 -25 0 -7 3 -2 5 12
5 14 0 19 -2 13 -5z m10 -40 c-7 -2 -19 -2 -25 0 -7 3 -2 5 12 5 14 0 19 -2
13 -5z"/>
<path d="M6399 1491 c-128 -42 -193 -163 -155 -293 32 -110 134 -174 257 -161
l59 6 0 107 0 107 -27 -2 c-26 -1 -27 -3 -24 -52 2 -44 -1 -53 -19 -63 -58
-31 -160 43 -160 115 0 101 80 158 186 132 27 -7 33 -4 57 30 l27 38 -36 18
c-41 21 -127 31 -165 18z m-19 -55 c0 -2 -7 -7 -16 -10 -8 -3 -12 -2 -9 4 6
10 25 14 25 6z m15 -16 c-3 -5 -12 -10 -18 -10 -7 0 -6 4 3 10 19 12 23 12 15
0z m-85 -14 c0 -2 -8 -10 -17 -17 -16 -13 -17 -12 -4 4 13 16 21 21 21 13z
m-49 -83 c-12 -20 -14 -14 -5 12 4 9 9 14 11 11 3 -2 0 -13 -6 -23z m60 -14
c-5 -13 -10 -19 -10 -12 -1 15 10 45 15 40 3 -2 0 -15 -5 -28z m11 -114 c9
-20 9 -20 -6 -1 -9 11 -16 27 -15 35 0 14 1 14 6 1 3 -8 10 -24 15 -35z m-17
-11 c9 -15 12 -23 6 -20 -11 7 -35 46 -28 46 3 0 12 -12 22 -26z m3 -57 c-1
-2 4 -12 12 -23 14 -19 14 -19 -7 0 -13 10 -20 23 -17 28 3 5 8 7 11 4 2 -2 3
-6 1 -9z m155 -14 c-7 -2 -21 -2 -30 0 -10 3 -4 5 12 5 17 0 24 -2 18 -5z"/>
<path d="M6870 1479 c-93 -42 -140 -112 -140 -209 0 -128 76 -216 203 -235 51
-8 49 -9 49 55 0 36 -1 37 -39 43 -68 11 -108 56 -117 130 -8 63 61 137 127
137 26 0 27 2 27 50 0 50 0 50 -32 50 -18 0 -53 -10 -78 -21z m-26 -48 c3 -4
-7 -19 -22 -32 l-27 -24 24 28 c24 27 18 38 -9 15 -12 -11 -12 -10 -1 5 15 19
27 22 35 8z m40 -16 c-10 -8 -23 -15 -28 -15 -6 0 -1 7 10 15 10 8 23 15 28
15 6 0 1 -7 -10 -15z m-44 -29 c0 -2 -8 -10 -17 -17 -16 -13 -17 -12 -4 4 13
16 21 21 21 13z m-8 -45 c-9 -16 -18 -28 -21 -26 -4 5 27 55 34 55 2 0 -4 -13
-13 -29z m-65 -93 c-2 -13 -4 -3 -4 22 0 25 2 35 4 23 2 -13 2 -33 0 -45z m57
-44 c3 -8 2 -12 -4 -9 -6 3 -10 10 -10 16 0 14 7 11 14 -7z m-36 -29 c-3 -3
-9 2 -12 12 -6 14 -5 15 5 6 7 -7 10 -15 7 -18z m43 -22 c13 -16 12 -17 -3 -4
-10 7 -18 15 -18 17 0 8 8 3 21 -13z m-6 -23 c10 -11 16 -20 13 -20 -3 0 -13
9 -23 20 -10 11 -16 20 -13 20 3 0 13 -9 23 -20z m-14 -17 c13 -16 12 -17 -3
-4 -10 7 -18 15 -18 17 0 8 8 3 21 -13z m152 0 c-7 -2 -21 -2 -30 0 -10 3 -4
5 12 5 17 0 24 -2 18 -5z"/>
<path d="M7181 1493 c-53 -11 -139 -81 -126 -103 3 -6 1 -9 -5 -8 -18 4 -38
-59 -39 -117 -1 -62 33 -140 78 -178 44 -36 130 -61 184 -52 120 20 197 111
197 232 0 89 -45 165 -123 204 -40 21 -122 32 -166 22z m-42 -70 c-12 -15 -12
-16 4 -10 25 9 21 4 -15 -23 -31 -22 -32 -22 -14 -2 11 12 16 22 11 22 -4 0
-2 7 5 15 7 8 15 15 17 15 3 0 -1 -8 -8 -17z m138 -9 c-3 -3 -12 -4 -19 -1 -8
3 -5 6 6 6 11 1 17 -2 13 -5z m34 -37 c42 -28 59 -60 59 -112 0 -52 -17 -84
-59 -112 -86 -58 -201 6 -201 112 0 107 114 171 201 112z m-230 -10 c-10 -9
-11 -8 -5 6 3 10 9 15 12 12 3 -3 0 -11 -7 -18z m329 -2 c14 -19 14 -19 -2 -6
-10 7 -18 18 -18 24 0 6 1 8 3 6 1 -2 9 -13 17 -24z m-322 -30 c-6 -14 -13
-23 -15 -21 -5 5 15 46 22 46 3 0 -1 -11 -7 -25z m332 -39 c0 -12 -5 -7 -19
24 -11 24 -11 24 3 6 9 -11 16 -24 16 -30z m-393 -43 c-3 -10 -5 -4 -5 12 0
17 2 24 5 18 2 -7 2 -21 0 -30z m430 5 c-3 -7 -5 -2 -5 12 0 14 2 19 5 13 2
-7 2 -19 0 -25z m-360 -30 c-3 -8 -6 -5 -6 6 -1 11 2 17 5 13 3 -3 4 -12 1
-19z m9 -58 c4 0 4 7 0 15 -8 22 2 18 15 -6 8 -15 8 -19 0 -15 -6 4 -11 1 -11
-6 0 -7 -9 1 -20 17 -11 17 -20 35 -20 40 1 6 8 -2 16 -17 8 -16 17 -28 20
-28z m324 32 c0 -5 -7 -17 -15 -28 -14 -18 -14 -17 -4 9 12 27 19 34 19 19z
m-350 -37 c14 -19 14 -19 -2 -6 -10 7 -18 18 -18 24 0 6 1 8 3 6 1 -2 9 -13
17 -24z m80 -51 c0 -2 -9 0 -20 6 -11 6 -20 13 -20 16 0 2 9 0 20 -6 11 -6 20
-13 20 -16z m200 21 c0 -8 -62 -37 -68 -31 -3 3 1 6 9 6 12 0 11 2 -1 11 -12
8 -11 9 5 5 11 -3 27 -1 35 4 17 11 20 12 20 5z m30 2 c0 -2 -10 -12 -22 -23
l-23 -19 19 23 c18 21 26 27 26 19z m-127 -24 c-13 -2 -33 -2 -45 0 -13 2 -3
4 22 4 25 0 35 -2 23 -4z m-46 -19 c-3 -3 -12 -4 -19 -1 -8 3 -5 6 6 6 11 1
17 -2 13 -5z"/>
<path d="M8565 1484 c-116 -59 -87 -231 43 -259 45 -9 63 -46 37 -75 -21 -23
-37 -25 -64 -8 -17 10 -36 2 -90 -39 -10 -7 28 -38 68 -56 55 -24 99 -17 146
24 45 40 61 90 46 146 -13 46 -57 90 -99 99 -41 8 -57 19 -60 42 -2 13 5 25
17 32 12 6 21 7 21 3 0 -4 5 -2 12 5 9 9 16 8 30 -5 13 -12 21 -13 31 -4 8 6
18 7 22 3 5 -4 5 1 2 10 -4 12 -2 15 9 11 18 -7 18 11 1 26 -11 8 -16 5 -25
-14 -14 -29 -25 -31 -43 -7 -13 15 -12 16 4 3 9 -8 21 -11 24 -7 4 4 1 12 -7
17 -13 9 -12 10 2 6 24 -8 33 24 11 37 -47 28 -96 32 -138 10z m-4 -58 c-6 -7
-9 -22 -5 -32 5 -16 4 -16 -5 -4 -9 12 -11 13 -11 1 0 -8 -3 -11 -6 -8 -7 7
22 57 32 57 4 0 1 -6 -5 -14z m-31 -61 c0 -12 -19 -12 -23 0 -4 9 -1 12 9 8 7
-3 14 -7 14 -8z m36 -82 c-7 -7 -26 7 -26 19 0 6 6 6 15 -2 9 -7 13 -15 11
-17z m89 17 c3 -6 -1 -7 -9 -4 -18 7 -21 14 -7 14 6 0 13 -4 16 -10z m-44 -18
c-7 -2 -18 1 -23 6 -8 8 -4 9 13 5 13 -4 18 -8 10 -11z m58 -23 c-15 -9 -32
-2 -24 11 3 5 13 6 21 3 12 -4 13 -8 3 -14z m35 -9 c-6 -6 -10 -3 -10 10 0 13
4 16 10 10 7 -7 7 -13 0 -20z m33 -87 c-3 -10 -5 -2 -5 17 0 19 2 27 5 18 2
-10 2 -26 0 -35z m-60 5 c-3 -7 -5 -2 -5 12 0 14 2 19 5 13 2 -7 2 -19 0 -25z
m-44 -55 c-7 -2 -21 -2 -30 0 -10 3 -4 5 12 5 17 0 24 -2 18 -5z m-20 -20 c-7
-2 -19 -2 -25 0 -7 3 -2 5 12 5 14 0 19 -2 13 -5z m77 -18 c-7 -8 -17 -15 -23
-15 -6 0 -2 7 9 15 25 19 30 19 14 0z"/>
<path d="M9327 1484 c-34 -10 -47 -19 -43 -29 2 -7 -3 -19 -12 -27 -15 -12
-16 -11 -3 5 22 28 -3 20 -31 -10 -41 -45 -60 -92 -60 -152 -1 -124 80 -217
204 -236 l47 -7 -2 36 c-2 19 1 38 7 40 6 2 -8 5 -31 5 -23 1 -44 4 -46 9 -3
4 16 6 41 5 l47 -2 -41 8 c-48 8 -87 32 -109 65 -21 32 -22 109 -1 141 23 35
74 65 111 65 30 0 30 0 27 50 -4 47 -6 50 -30 49 -15 0 -49 -7 -75 -15z m66
-11 c-7 -2 -19 -2 -25 0 -7 3 -2 5 12 5 14 0 19 -2 13 -5z m-93 -46 c0 -2 -10
-12 -22 -23 l-23 -19 19 23 c18 21 26 27 26 19z m-27 -61 c-10 -13 -20 -22
-22 -20 -4 4 29 44 36 44 2 0 -4 -11 -14 -24z m0 -41 c-3 -9 -8 -14 -10 -11
-3 3 -2 9 2 15 9 16 15 13 8 -4z m-76 -47 c-3 -7 -5 -2 -5 12 0 14 2 19 5 13
2 -7 2 -19 0 -25z m60 -30 c-3 -8 -6 -5 -6 6 -1 11 2 17 5 13 3 -3 4 -12 1
-19z m13 -78 c6 -11 8 -20 6 -20 -3 0 -10 9 -16 20 -6 11 -8 20 -6 20 3 0 10
-9 16 -20z m10 -35 c11 7 7 -22 -5 -32 -4 -4 -5 -3 -2 3 4 7 0 17 -9 25 -8 7
-20 22 -25 33 -6 13 -2 11 11 -7 12 -15 25 -25 30 -22z m-29 -12 c13 -16 12
-17 -3 -4 -17 13 -22 21 -14 21 2 0 10 -8 17 -17z m94 -21 c-3 -3 -11 0 -18 7
-9 10 -8 11 6 5 10 -3 15 -9 12 -12z m-20 -12 c3 -6 -1 -7 -9 -4 -18 7 -21 14
-7 14 6 0 13 -4 16 -10z"/>
<path d="M1709 1476 c-2 -40 -1 -191 2 -306 l3 -135 6 175 6 175 2 -172 2
-173 25 0 24 0 4 158 3 157 2 -157 c3 -195 20 -214 24 -26 l3 131 28 -51 c15
-28 33 -51 38 -49 6 1 18 -9 26 -23 l15 -25 -21 25 c-11 14 -21 22 -21 18 0
-15 82 -158 91 -158 6 0 7 5 3 12 -5 7 -3 8 7 2 8 -4 33 -9 57 -10 l42 -2 0
224 0 224 -50 0 -50 0 0 -137 0 -138 -20 30 c-11 17 -23 30 -27 30 -5 0 -14 4
-20 8 -16 10 -16 2 -3 -24 6 -10 8 -19 6 -19 -7 0 -36 56 -36 67 0 4 5 1 10
-7 8 -13 10 -13 10 -1 0 11 4 9 15 -5 12 -16 14 -16 15 -3 0 9 -9 28 -20 42
-11 14 -20 29 -20 34 0 4 -16 33 -36 63 l-35 55 -54 1 c-34 1 -55 -3 -56 -10z
m338 -28 c-3 -8 -6 -5 -6 6 -1 11 2 17 5 13 3 -3 4 -12 1 -19z m-320 -30 c-3
-7 -5 -2 -5 12 0 14 2 19 5 13 2 -7 2 -19 0 -25z m109 10 c5 -7 3 -8 -6 -3
-10 6 -12 4 -6 -11 5 -14 4 -16 -5 -7 -6 6 -8 16 -5 22 9 14 13 14 22 -1z
m-48 -43 c-3 -3 -9 2 -12 12 -6 14 -5 15 5 6 7 -7 10 -15 7 -18z m31 -49 c-3
-3 -11 5 -18 17 -13 21 -12 21 5 5 10 -10 16 -20 13 -22z m-52 -98 c-2 -18 -4
-4 -4 32 0 36 2 50 4 33 2 -18 2 -48 0 -65z m91 67 c-3 -3 -9 2 -12 12 -6 14
-5 15 5 6 7 -7 10 -15 7 -18z m-14 -11 c3 -8 2 -12 -4 -9 -6 3 -10 10 -10 16
0 14 7 11 14 -7z m66 -74 c6 -11 8 -20 6 -20 -3 0 -10 9 -16 20 -6 11 -8 20
-6 20 3 0 10 -9 16 -20z m76 -51 c10 -21 11 -29 3 -23 -9 5 -11 2 -6 -9 9 -24
0 -21 -14 4 -8 15 -8 19 0 15 14 -9 14 0 1 25 -6 10 -8 19 -6 19 3 0 13 -14
22 -31z m34 -59 c6 -11 8 -20 6 -20 -3 0 -10 9 -16 20 -6 11 -8 20 -6 20 3 0
10 -9 16 -20z m-35 -20 c9 -16 13 -30 11 -30 -3 0 -12 14 -21 30 -9 17 -13 30
-11 30 3 0 12 -13 21 -30z"/>
<path d="M2789 1480 c-2 -15 0 -380 3 -410 1 -19 5 64 8 185 l6 220 2 -217 2
-218 25 0 25 0 0 225 0 226 -35 -3 c-19 -1 -35 -5 -36 -8z"/>
<path d="M2870 1265 c0 -126 2 -226 5 -224 6 7 7 440 1 447 -3 3 -6 -97 -6
-223z"/>
<path d="M2917 1484 c-4 -4 -7 -106 -7 -226 l0 -218 40 0 40 0 0 223 0 223
-33 2 c-18 1 -36 -1 -40 -4z"/>
<path d="M3000 1267 l0 -227 103 0 c69 0 97 3 87 10 -8 5 -10 10 -3 10 6 0 10
8 8 18 -2 9 -4 20 -4 24 -1 4 -40 9 -88 11 l-88 3 88 2 c117 3 115 22 -3 22
l-89 0 0 171 c0 94 -2 174 -5 177 -3 3 -6 -97 -6 -221z"/>
<path d="M4147 1456 c-20 -107 -67 -393 -67 -402 0 -14 62 -14 72 1 5 6 8 6 8
-2 0 -7 4 -13 9 -13 4 0 16 53 26 118 24 159 27 166 49 111 10 -24 35 -85 57
-135 l40 -91 55 1 55 1 54 123 c29 68 55 126 58 128 2 2 14 -53 27 -124 l22
-127 50 -3 c50 -2 50 -2 45 26 -3 15 -20 116 -38 224 l-33 197 -51 -1 -52 -1
-57 -136 c-89 -210 -72 -207 -150 -23 l-68 159 -53 0 c-51 0 -53 -1 -58 -31z
m73 -21 c0 -5 -5 -3 -10 5 -5 8 -10 20 -10 25 0 6 5 3 10 -5 5 -8 10 -19 10
-25z m308 -20 c-6 -14 -13 -23 -15 -21 -5 5 15 46 22 46 3 0 -1 -11 -7 -25z
m-308 -6 c0 8 2 12 5 9 3 -3 2 -13 -1 -22 -5 -14 -9 -15 -15 -4 -5 7 -9 18 -9
23 0 6 5 3 10 -5 8 -12 10 -12 10 -1z m-63 -21 c-3 -8 -6 -5 -6 6 -1 11 2 17
5 13 3 -3 4 -12 1 -19z m127 6 c3 -8 2 -12 -4 -9 -6 3 -10 10 -10 16 0 14 7
11 14 -7z m247 -17 c-10 -9 -11 -8 -5 6 3 10 9 15 12 12 3 -3 0 -11 -7 -18z
m66 -9 c-3 -7 -5 -2 -5 12 0 14 2 19 5 13 2 -7 2 -19 0 -25z m40 0 c-3 -8 -6
-5 -6 6 -1 11 2 17 5 13 3 -3 4 -12 1 -19z m-492 -53 c-3 -26 -8 -45 -11 -43
-2 3 -1 26 2 52 4 25 9 44 12 42 2 -3 1 -26 -3 -51z m396 28 c-12 -20 -14 -14
-5 12 4 9 9 14 11 11 3 -2 0 -13 -6 -23z m-251 -18 c0 -5 -5 -3 -10 5 -5 8
-10 20 -10 25 0 6 5 3 10 -5 5 -8 10 -19 10 -25z m-11 -30 c0 -5 -6 1 -14 15
-8 14 -14 30 -14 35 0 6 6 -1 14 -15 8 -14 14 -29 14 -35z m328 23 c-3 -7 -5
-2 -5 12 0 14 2 19 5 13 2 -7 2 -19 0 -25z m40 -10 c-3 -7 -5 -2 -5 12 0 14 2
19 5 13 2 -7 2 -19 0 -25z m-60 -20 c-3 -7 -5 -2 -5 12 0 14 2 19 5 13 2 -7 2
-19 0 -25z m-430 -20 c-3 -7 -5 -2 -5 12 0 14 2 19 5 13 2 -7 2 -19 0 -25z
m500 -10 c-3 -8 -6 -5 -6 6 -1 11 2 17 5 13 3 -3 4 -12 1 -19z m-186 -25 c-12
-20 -14 -14 -5 12 4 9 9 14 11 11 3 -2 0 -13 -6 -23z m126 5 c-3 -8 -6 -5 -6
6 -1 11 2 17 5 13 3 -3 4 -12 1 -19z m-470 -20 c-3 -7 -5 -2 -5 12 0 14 2 19
5 13 2 -7 2 -19 0 -25z m20 -15 c-3 -10 -5 -2 -5 17 0 19 2 27 5 18 2 -10 2
-26 0 -35z m20 5 c-3 -8 -6 -5 -6 6 -1 11 2 17 5 13 3 -3 4 -12 1 -19z m500
-10 c-3 -7 -5 -2 -5 12 0 14 2 19 5 13 2 -7 2 -19 0 -25z m-60 0 c-3 -8 -6 -5
-6 6 -1 11 2 17 5 13 3 -3 4 -12 1 -19z m-167 -43 c0 -5 -5 -3 -10 5 -5 8 -10
10 -10 4 0 -5 -7 -19 -15 -30 -12 -15 -12 -11 2 19 11 25 19 33 25 25 4 -7 8
-17 8 -23z m-303 3 c-3 -8 -6 -5 -6 6 -1 11 2 17 5 13 3 -3 4 -12 1 -19z m203
-13 c0 -5 -5 -3 -10 5 -5 8 -10 20 -10 25 0 6 5 3 10 -5 5 -8 10 -19 10 -25z
m-183 3 c-3 -8 -6 -5 -6 6 -1 11 2 17 5 13 3 -3 4 -12 1 -19z m500 -15 c-3
-10 -5 -4 -5 12 0 17 2 24 5 18 2 -7 2 -21 0 -30z m20 15 c-3 -8 -6 -5 -6 6
-1 11 2 17 5 13 3 -3 4 -12 1 -19z m-60 -20 c-3 -7 -5 -2 -5 12 0 14 2 19 5
13 2 -7 2 -19 0 -25z m-255 -14 c-8 -15 -9 -15 -15 0 -4 10 -3 15 3 11 6 -3
10 2 11 12 0 10 3 13 5 6 3 -7 1 -20 -4 -29z m275 4 c-3 -8 -6 -5 -6 6 -1 11
2 17 5 13 3 -3 4 -12 1 -19z m-463 -3 c-4 -8 -11 -12 -16 -9 -6 4 -5 10 3 15
19 12 19 11 13 -6z m175 -40 c0 -5 -6 1 -14 15 -8 14 -14 30 -14 35 0 6 6 -1
14 -15 8 -14 14 -29 14 -35z m62 18 c-12 -20 -14 -14 -5 12 4 9 9 14 11 11 3
-2 0 -13 -6 -23z m-264 -15 c-3 -8 -6 -5 -6 6 -1 11 2 17 5 13 3 -3 4 -12 1
-19z m500 -10 c-3 -7 -5 -2 -5 12 0 14 2 19 5 13 2 -7 2 -19 0 -25z"/>
<path d="M4737 1483 c-4 -3 -7 -105 -7 -225 0 -211 1 -218 20 -218 11 0 20 6
20 13 0 8 4 7 10 -3 6 -10 10 55 12 195 l2 210 6 -210 c3 -115 7 -190 9 -165
l4 45 7 -45 c6 -39 7 -34 8 36 l2 82 47 7 c91 13 139 71 131 157 -5 47 -32 93
-49 82 -5 -3 -6 1 -3 9 7 20 -45 37 -110 37 -37 0 -47 -3 -36 -10 9 -6 10 -10
3 -10 -6 0 -15 5 -18 10 -7 11 -48 14 -58 3z m146 -50 c-7 -2 -21 -2 -30 0
-10 3 -4 5 12 5 17 0 24 -2 18 -5z m107 -38 c0 -5 -5 -3 -10 5 -5 8 -10 20
-10 25 0 6 5 3 10 -5 5 -8 10 -19 10 -25z m-120 -5 c23 0 46 -28 42 -53 -2
-12 1 -17 7 -13 7 5 8 1 4 -9 -4 -12 -8 -13 -13 -5 -6 9 -12 9 -27 -1 -31 -19
-53 -5 -53 35 0 39 11 77 18 58 2 -7 12 -12 22 -12z m103 -75 c-3 -9 -8 -14
-10 -11 -3 3 -2 9 2 15 9 16 15 13 8 -4z m27 6 c0 -6 -10 -22 -23 -37 -17 -20
-24 -23 -24 -11 0 9 4 14 9 11 4 -3 13 6 20 20 12 27 18 33 18 17z m-123 -57
c-3 -3 -12 -4 -19 -1 -8 3 -5 6 6 6 11 1 17 -2 13 -5z"/>
<path d="M5040 1324 c0 -179 6 -206 59 -252 77 -67 205 -42 251 49 18 33 20
59 20 202 l0 163 -35 2 -34 3 -4 -153 -3 -153 -2 153 c-1 103 -5 151 -12 147
-7 -4 -10 -62 -9 -157 1 -143 0 -151 -22 -174 -35 -38 -80 -28 -107 23 -8 13
-12 75 -12 162 0 78 -3 141 -7 142 -5 0 -25 2 -45 5 l-38 4 0 -166z m77 4 c-2
-29 -3 -8 -3 47 0 55 1 79 3 53 2 -26 2 -71 0 -100z m240 -85 c-1 -43 -3 -8
-3 77 0 85 2 120 3 78 2 -43 2 -113 0 -155z m-300 0 c-2 -38 -3 -7 -3 67 0 74
1 105 3 68 2 -38 2 -98 0 -135z m60 -30 c-3 -10 -5 -4 -5 12 0 17 2 24 5 18 2
-7 2 -21 0 -30z m-3 -59 c3 -8 2 -12 -4 -9 -6 3 -10 10 -10 16 0 14 7 11 14
-7z m22 -36 c3 -4 -1 -5 -10 -4 -8 1 -18 5 -22 8 -3 4 1 5 10 4 8 -1 18 -5 22
-8z m91 -4 c-3 -3 -12 -4 -19 -1 -8 3 -5 6 6 6 11 1 17 -2 13 -5z m66 -11 c-3
-7 -8 -13 -12 -13 -4 0 -8 6 -8 13 0 8 6 14 13 14 7 0 10 -6 7 -14z m-113 -3
c8 -5 11 -10 5 -10 -5 0 -17 5 -25 10 -8 5 -10 10 -5 10 6 0 17 -5 25 -10z"/>
<path d="M5406 1453 c1 -21 3 -44 3 -50 1 -8 16 -13 41 -13 l40 0 0 -175 c0
-145 2 -175 14 -175 9 0 16 13 19 33 l4 32 1 -32 c2 -26 6 -33 22 -33 11 0 20
6 20 13 0 8 4 7 10 -3 6 -10 10 44 10 163 l0 177 44 0 c36 0 44 3 42 18 0 9
-5 20 -11 24 -6 5 -5 8 3 8 6 0 12 7 12 15 0 8 -6 15 -12 15 -9 0 -8 4 2 10
10 7 -31 10 -126 10 l-140 0 2 -37z m97 20 c-13 -2 -35 -2 -50 0 -16 2 -5 4
22 4 28 0 40 -2 28 -4z m-40 -40 c-7 -2 -21 -2 -30 0 -10 3 -4 5 12 5 17 0 24
-2 18 -5z m50 0 c-7 -2 -19 -2 -25 0 -7 3 -2 5 12 5 14 0 19 -2 13 -5z m110 0
c-18 -2 -48 -2 -65 0 -18 2 -4 4 32 4 36 0 50 -2 33 -4z m-96 -135 c-2 -13 -4
-3 -4 22 0 25 2 35 4 23 2 -13 2 -33 0 -45z m0 -165 c-2 -16 -4 -5 -4 22 0 28
2 40 4 28 2 -13 2 -35 0 -50z m50 -50 c-3 -10 -5 -4 -5 12 0 17 2 24 5 18 2
-7 2 -21 0 -30z"/>
<path d="M5712 1262 c2 -199 3 -212 8 -102 l6 125 2 -122 2 -123 24 0 c18 0
26 7 29 23 l4 22 2 -22 c0 -13 6 -23 11 -23 6 0 10 81 10 224 l0 224 -50 0
-50 1 2 -227z m15 121 c-2 -16 -4 -5 -4 22 0 28 2 40 4 28 2 -13 2 -35 0 -50z"/>
<path d="M5840 1268 l0 -223 35 -2 35 -2 2 152 2 152 6 -155 c4 -113 7 -145
13 -120 5 20 7 82 5 139 -5 121 -10 124 90 -53 l62 -111 60 -1 60 -1 0 222 0
222 -50 -1 -50 0 0 -136 0 -135 -46 80 c-109 189 -110 190 -154 191 -22 0 -40
-1 -40 -3 0 -14 23 -43 30 -38 5 3 11 1 14 -4 8 -13 -19 -8 -37 8 -13 10 -16
8 -20 -16 -2 -15 -3 -9 -1 15 2 23 -1 42 -6 42 -6 0 -10 -84 -10 -222z m106
177 c-1 -30 -2 -31 -17 -4 -8 15 -8 19 0 15 6 -4 11 -2 11 3 0 6 2 11 4 11 2
0 3 -11 2 -25z m-69 -47 c-3 -8 -6 -5 -6 6 -1 11 2 17 5 13 3 -3 4 -12 1 -19z
m60 -25 c2 3 0 15 -7 26 -6 12 -8 21 -6 21 3 0 13 -14 21 -30 9 -17 20 -28 25
-25 5 3 11 1 14 -4 7 -10 -13 -9 -31 2 -6 4 -13 1 -16 -5 -2 -7 -11 1 -20 19
-21 40 -22 58 -1 20 9 -16 18 -27 21 -24z m260 -85 c-3 -8 -6 -5 -6 6 -1 11 2
17 5 13 3 -3 4 -12 1 -19z m-186 -15 c13 -16 12 -17 -3 -4 -17 13 -22 21 -14
21 2 0 10 -8 17 -17z m77 -98 c-3 -3 -9 2 -12 12 -6 14 -5 15 5 6 7 -7 10 -15
7 -18z m-18 -5 c6 -11 8 -20 6 -20 -3 0 -10 9 -16 20 -6 11 -8 20 -6 20 3 0
10 -9 16 -20z m70 -40 c6 -11 8 -20 6 -20 -3 0 -10 9 -16 20 -6 11 -8 20 -6
20 3 0 10 -9 16 -20z m-10 -25 c14 -19 14 -19 -2 -6 -10 7 -18 18 -18 24 0 6
1 8 3 6 1 -2 9 -13 17 -24z m-6 -31 c3 -8 2 -12 -4 -9 -6 3 -10 10 -10 16 0
14 7 11 14 -7z"/>
<path d="M7500 1266 l0 -224 35 0 34 0 4 132 3 131 2 -132 c1 -81 6 -133 12
-133 6 0 10 53 10 138 0 119 2 134 13 112 7 -14 42 -75 76 -137 l63 -111 44 0
c41 0 43 1 34 21 -10 21 -10 21 6 0 9 -13 20 -23 25 -23 5 0 9 101 9 224 l0
224 -50 -1 -50 0 0 -134 c0 -79 -4 -132 -9 -129 -5 4 -11 1 -13 -6 -3 -7 -7
-5 -11 6 -4 10 -3 15 3 11 6 -3 10 -2 10 3 0 10 -52 106 -85 155 -10 16 -26
43 -35 60 -14 27 -24 32 -60 35 -38 3 -42 2 -36 -15 6 -17 5 -17 -8 0 -7 9
-16 17 -20 17 -3 0 -6 -101 -6 -224z m17 42 c-2 -18 -4 -4 -4 32 0 36 2 50 4
33 2 -18 2 -48 0 -65z m89 42 c4 0 3 8 0 17 -4 10 -3 14 1 9 7 -7 13 -56 7
-56 -5 0 -44 68 -44 76 1 5 8 -3 16 -18 8 -16 17 -28 20 -28z m-69 -17 c-3
-10 -5 -2 -5 17 0 19 2 27 5 18 2 -10 2 -26 0 -35z m131 22 c-3 -3 -9 2 -12
12 -6 14 -5 15 5 6 7 -7 10 -15 7 -18z m-91 -37 c-3 -8 -6 -5 -6 6 -1 11 2 17
5 13 3 -3 4 -12 1 -19z m101 -23 c-3 -3 -9 2 -12 12 -6 14 -5 15 5 6 7 -7 10
-15 7 -18z m0 -40 c-3 -3 -9 2 -12 12 -6 14 -5 15 5 6 7 -7 10 -15 7 -18z
m-161 -47 c-3 -7 -5 -2 -5 12 0 14 2 19 5 13 2 -7 2 -19 0 -25z m213 -43 c0
-5 -9 5 -20 23 -26 42 -26 56 0 17 11 -16 20 -34 20 -40z m-193 -27 c-2 -13
-4 -3 -4 22 0 25 2 35 4 23 2 -13 2 -33 0 -45z m-20 20 c-3 -7 -5 -2 -5 12 0
14 2 19 5 13 2 -7 2 -19 0 -25z m267 -84 c3 -8 2 -12 -4 -9 -6 3 -10 10 -10
16 0 14 7 11 14 -7z"/>
<path d="M7902 1448 c1 -49 10 -58 56 -58 l32 0 0 -176 0 -175 23 3 c22 3 22
6 27 173 l6 170 2 -172 c2 -146 4 -173 17 -173 13 0 15 26 15 174 l0 175 43 3
42 3 3 48 3 47 -135 0 -136 0 2 -42z m196 25 c-32 -2 -86 -2 -120 0 -35 2 -9
3 57 3 66 0 94 -1 63 -3z m-115 -40 c-7 -2 -21 -2 -30 0 -10 3 -4 5 12 5 17 0
24 -2 18 -5z m44 1 c-3 -3 -12 -4 -19 -1 -8 3 -5 6 6 6 11 1 17 -2 13 -5z
m106 -1 c-18 -2 -48 -2 -65 0 -18 2 -4 4 32 4 36 0 50 -2 33 -4z"/>
<path d="M8205 1433 c1 -32 3 -132 3 -223 l2 -166 35 -2 35 -3 3 223 2 223 3
-222 2 -223 88 0 88 0 0 36 0 35 -78 -3 c-43 -2 -78 0 -78 5 0 4 33 7 74 7
104 0 107 18 4 22 l-83 3 0 35 0 35 64 5 c61 5 64 6 48 22 -9 9 -13 18 -8 20
5 2 11 14 13 28 3 24 0 25 -54 28 -42 2 -58 7 -59 17 -2 19 -2 43 0 53 0 4 35
6 76 4 57 -3 75 0 76 10 1 7 2 30 3 51 l2 37 -108 0 -108 0 -3 -162 -3 -163
-2 163 c-2 151 -3 162 -21 162 -16 0 -18 -7 -16 -57z m212 0 c-20 -2 -52 -2
-70 0 -17 2 0 4 38 4 39 0 53 -2 32 -4z m-34 -140 c-13 -2 -33 -2 -45 0 -13 2
-3 4 22 4 25 0 35 -2 23 -4z m14 -59 c-3 -3 -12 -4 -19 -1 -8 3 -5 6 6 6 11 1
17 -2 13 -5z m-150 -166 c-2 -13 -4 -3 -4 22 0 25 2 35 4 23 2 -13 2 -33 0
-45z m136 -15 c-13 -2 -33 -2 -45 0 -13 2 -3 4 22 4 25 0 35 -2 23 -4z"/>
<path d="M8780 1456 c0 -56 8 -66 51 -66 l39 0 0 -173 0 -174 44 1 45 0 6 83
c4 46 5 124 3 173 l-4 89 40 3 41 3 3 48 3 47 -135 0 -136 0 0 -34z m203 17
c-35 -2 -91 -2 -125 0 -35 2 -7 3 62 3 69 0 97 -1 63 -3z m-10 -40 c-35 -2
-91 -2 -125 0 -35 2 -7 3 62 3 69 0 97 -1 63 -3z m-103 -17 c0 -3 -4 -8 -10
-11 -5 -3 -10 -1 -10 4 0 6 5 11 10 11 6 0 10 -2 10 -4z m57 -58 c-3 -7 -5 -2
-5 12 0 14 2 19 5 13 2 -7 2 -19 0 -25z"/>
<path d="M9470 1265 c0 -189 2 -225 14 -225 10 0 16 14 19 43 l4 42 1 -42 2
-43 118 0 118 0 -1 50 0 50 -87 0 -88 0 -2 173 -3 172 -27 3 c-28 3 -28 3 -30
-65 l-2 -68 -5 65 c-4 40 -11 66 -18 68 -10 1 -13 -48 -13 -223z m223 -152
c-24 -2 -62 -2 -85 0 -24 2 -5 4 42 4 47 0 66 -2 43 -4z"/>
<path d="M9780 1324 c0 -191 7 -219 70 -260 75 -50 174 -35 227 35 28 36 28
37 31 214 l3 177 -35 0 -35 0 -4 -157 -3 -158 -2 158 c-1 107 -5 156 -12 152
-7 -4 -10 -62 -9 -158 1 -143 0 -152 -21 -174 -27 -29 -60 -29 -91 -2 -23 20
-24 27 -29 177 l-5 157 -42 1 -43 2 0 -164z m37 -71 c-1 -43 -3 -10 -3 72 0
83 2 118 3 78 2 -40 2 -107 0 -150z m20 15 c-1 -40 -3 -10 -3 67 0 77 1 110 3
73 2 -37 2 -100 0 -140z m240 49 c-2 -23 -3 -1 -3 48 0 50 1 68 3 42 2 -26 2
-67 0 -90z m20 51 c-3 -7 -5 -2 -5 12 0 14 2 19 5 13 2 -7 2 -19 0 -25z m0
-150 c-2 -13 -4 -3 -4 22 0 25 2 35 4 23 2 -13 2 -33 0 -45z m-76 -67 c-6 -10
-8 -21 -5 -23 2 -3 -2 -11 -10 -17 -11 -10 -14 -9 -12 1 3 17 25 58 32 58 2 0
0 -8 -5 -19z m22 -6 c-3 -9 -8 -14 -10 -11 -3 3 -2 9 2 15 9 16 15 13 8 -4z
m-199 -35 c-8 -8 -15 -5 -25 7 -13 17 -13 17 5 3 18 -14 19 -13 12 5 -6 16 -5
18 5 8 9 -9 10 -16 3 -23z m119 3 c-7 -2 -21 -2 -30 0 -10 3 -4 5 12 5 17 0
24 -2 18 -5z m75 -7 c-7 -8 -15 -12 -17 -11 -5 6 10 25 20 25 5 0 4 -6 -3 -14z
m-123 -6 c3 -6 -1 -7 -9 -4 -18 7 -21 14 -7 14 6 0 13 -4 16 -10z m32 -46 c-3
-3 -12 -4 -19 -1 -8 3 -5 6 6 6 11 1 17 -2 13 -5z"/>
<path d="M10140 1265 l0 -226 40 3 40 2 -1 225 c-1 126 -5 213 -9 196 l-8 -30
-1 28 c-1 23 -5 27 -31 27 l-30 0 0 -225z"/>
<path d="M10230 1265 l0 -225 38 0 c87 0 160 82 146 165 -3 22 -11 46 -16 52
-7 9 -7 26 0 52 24 96 -38 181 -133 181 l-35 0 0 -225z m47 169 c-3 -3 -12 -4
-19 -1 -8 3 -5 6 6 6 11 1 17 -2 13 -5z m73 -67 c0 -12 0 -11 -24 28 l-17 30
20 -24 c12 -13 21 -28 21 -34z m-59 13 c26 -15 24 -46 -6 -66 -32 -21 -45 -11
-45 37 0 42 13 49 51 29z m96 -52 c-2 -13 -4 -5 -4 17 -1 22 1 32 4 23 2 -10
2 -28 0 -40z m-40 0 c-3 -8 -6 -5 -6 6 -1 11 2 17 5 13 3 -3 4 -12 1 -19z
m-31 -23 c-3 -8 -2 -15 3 -15 4 0 8 -6 8 -14 0 -8 -6 -12 -14 -9 -7 3 -10 9
-7 14 3 5 0 9 -7 9 -8 0 -8 4 1 15 7 8 15 15 17 15 3 0 3 -7 -1 -15z m-31 -67
c52 -23 36 -98 -22 -98 -21 0 -23 4 -23 48 0 42 5 62 16 62 2 0 15 -5 29 -12z
m65 0 c0 -9 4 -8 10 2 5 8 10 11 10 5 0 -5 -4 -16 -9 -23 -6 -11 -10 -10 -15
4 -6 16 -8 16 -16 4 -6 -8 -10 -10 -10 -4 0 6 3 14 7 17 10 11 23 8 23 -5z
m48 -34 c-3 -27 -4 -26 -9 8 -3 22 -1 34 4 29 5 -5 7 -21 5 -37z m-61 -26 c-3
-7 -5 -2 -5 12 0 14 2 19 5 13 2 -7 2 -19 0 -25z m54 -35 c-12 -20 -14 -14 -5
12 4 9 9 14 11 11 3 -2 0 -13 -6 -23z"/>
<path d="M8657 1380 c3 -11 9 -17 15 -14 5 3 4 12 -3 20 -16 19 -18 18 -12 -6z"/>
<path d="M2440 1150 c0 -91 3 -110 15 -110 12 0 15 19 15 110 0 91 -3 110 -15
110 -12 0 -15 -19 -15 -110z"/>
<path d="M6570 1149 c0 -103 1 -109 20 -109 20 0 21 5 18 107 -3 92 -5 106
-20 109 -16 2 -18 -9 -18 -107z"/>
</g>
</svg>
